<svg width="375" height="286" viewBox="0 0 375 286" fill="none" xmlns="http://www.w3.org/2000/svg">
<mask id="mask0_1_4102" style="mask-type:alpha" maskUnits="userSpaceOnUse" x="1" y="0" width="375" height="220">
<path d="M376 30C376 13.4315 362.569 0 346 0H31C14.4314 0 1 13.4315 1 30V190C1 206.569 14.4315 220 31 220H346C362.569 220 376 206.569 376 190V30Z" fill="url(#paint0_linear_1_4102)"/>
</mask>
<g mask="url(#mask0_1_4102)">
<g filter="url(#filter0_d_1_4102)">
<path d="M376 30C376 13.4315 362.569 0 346 0H31C14.4314 0 1 13.4315 1 30V190C1 206.569 14.4315 220 31 220H346C362.569 220 376 206.569 376 190V30Z" fill="url(#paint1_linear_1_4102)"/>
</g>
<path d="M45.7533 -53.585C-79.1761 -87.425 -1.90201 218.387 -67.06 -42.2093L64.4011 -237.314L487.058 -134.893L594.566 18.6865L523.523 229.151L362.378 336.568C392.826 283.566 500.434 85.0246 306.971 106.19C65.1415 132.647 242.845 -0.198151 45.7533 -53.585Z" fill="url(#paint2_linear_1_4102)" fill-opacity="0.12"/>
<path d="M-12.1969 42.9172C-141.611 45.0591 17.4599 317.436 -117.428 85.1396L-45.2453 -138.775L389.236 -157.613L535.126 -39.8817L525.252 182.03L424.51 319.801C439.061 260.433 463.09 49.9643 283.089 123.964C58.0891 216.463 191.969 39.538 -12.1969 42.9172Z" fill="url(#paint3_linear_1_4102)" fill-opacity="0.12"/>
<path d="M-19.3357 133.541C-144.815 165.28 72.4366 393.959 -112.091 198.753L-93.1386 -35.7443L325.466 -153.64L494.452 -72.4716L535.69 145.798L447.882 318.414C448.443 257.291 444.919 31.4907 286.665 144.767C88.8473 286.363 178.624 83.4677 -19.3357 133.541Z" fill="url(#paint4_linear_1_4102)" fill-opacity="0.12"/>
<path d="M-15.8867 218.511C-131.872 275.956 128.655 453.771 -92.8343 301.789L-123.675 68.5578L260.726 -134.826L443.013 -91.0533L529.279 113.642L479.781 300.875C467.461 241.005 416.478 21.0071 285.619 165.063C122.046 345.132 167.094 127.883 -15.8867 218.511Z" fill="url(#paint5_linear_1_4102)" fill-opacity="0.12"/>
</g>
<defs>
<filter id="filter0_d_1_4102" x="-61" y="-58" width="499" height="344" filterUnits="userSpaceOnUse" color-interpolation-filters="sRGB">
<feFlood flood-opacity="0" result="BackgroundImageFix"/>
<feColorMatrix in="SourceAlpha" type="matrix" values="0 0 0 0 0 0 0 0 0 0 0 0 0 0 0 0 0 0 127 0" result="hardAlpha"/>
<feOffset dy="4"/>
<feGaussianBlur stdDeviation="31"/>
<feComposite in2="hardAlpha" operator="out"/>
<feColorMatrix type="matrix" values="0 0 0 0 0.600625 0 0 0 0 0.670375 0 0 0 0 0.775 0 0 0 0.18 0"/>
<feBlend mode="normal" in2="BackgroundImageFix" result="effect1_dropShadow_1_4102"/>
<feBlend mode="normal" in="SourceGraphic" in2="effect1_dropShadow_1_4102" result="shape"/>
</filter>
<linearGradient id="paint0_linear_1_4102" x1="380" y1="220" x2="1" y2="2.34119e-05" gradientUnits="userSpaceOnUse">
<stop stop-color="#7551FF"/>
<stop offset="1" stop-color="#A993FF"/>
</linearGradient>
<linearGradient id="paint1_linear_1_4102" x1="380" y1="220" x2="1" y2="2.34119e-05" gradientUnits="userSpaceOnUse">
<stop stop-color="#130160"/>
<stop offset="1" stop-color="#36353C"/>
</linearGradient>
<linearGradient id="paint2_linear_1_4102" x1="-3.46283" y1="329.824" x2="409.339" y2="-104.264" gradientUnits="userSpaceOnUse">
<stop stop-color="white"/>
<stop offset="1" stop-color="white" stop-opacity="0"/>
</linearGradient>
<linearGradient id="paint3_linear_1_4102" x1="46.872" y1="424.932" x2="323.063" y2="-106.627" gradientUnits="userSpaceOnUse">
<stop stop-color="white"/>
<stop offset="1" stop-color="white" stop-opacity="0"/>
</linearGradient>
<linearGradient id="paint4_linear_1_4102" x1="125.698" y1="491.856" x2="272.736" y2="-88.8479" gradientUnits="userSpaceOnUse">
<stop stop-color="white"/>
<stop offset="1" stop-color="white" stop-opacity="0"/>
</linearGradient>
<linearGradient id="paint5_linear_1_4102" x1="201.333" y1="538.261" x2="222.819" y2="-60.3842" gradientUnits="userSpaceOnUse">
<stop stop-color="white"/>
<stop offset="1" stop-color="white" stop-opacity="0"/>
</linearGradient>
</defs>
</svg>
